<svg data-v-fde0c5aa="" xmlns="http://www.w3.org/2000/svg" viewBox="0 0 300 100" class="iconLeftSlogan">
    <!---->
    <defs data-v-fde0c5aa="">
        <!---->
    </defs>
    <rect data-v-fde0c5aa="" fill="#FCF2F7" x="0" y="0" width="300px" height="100px" class="logo-background-square">
    </rect>
    <defs data-v-fde0c5aa="">
        <!---->
    </defs>
    <g data-v-fde0c5aa="" id="8e819868-80ab-4dae-ad81-fe835cae52f7" fill="#321926"
        transform="matrix(2.157240399218528,0,0,2.157240399218528,120.18924772848995,15.65554242398767)">
        <path
            d="M2.81 11.41L2.79 8.57L2.79 8.57Q2.28 8.57 1.78 9.10L1.78 9.10L0.98 10.12L0.98 10.12Q0.57 10.64 0.27 10.64L0.27 10.64L0.27 10.64Q0.27 10.42 0.32 10.19L0.32 10.19L0.60 9.06L0.60 9.06Q0.76 8.41 1.16 7.95L1.16 7.95L1.16 7.95Q1.74 7.29 3.51 6.24L3.51 6.24L3.51 6.24Q5.39 5.14 6.09 5.14L6.09 5.14L6.09 5.14Q6.09 5.25 6.01 5.47L6.01 5.47L6.01 5.47Q5.92 5.68 5.92 5.78L5.92 5.78L5.92 5.85L5.92 5.85Q6.71 5.70 7.62 5.70L7.62 5.70L7.62 5.70Q8.61 5.70 9.32 6.08L9.32 6.08L9.32 6.08Q10.16 6.51 10.40 7.39L10.40 7.39L10.40 7.52L10.40 7.52Q10.42 7.67 10.42 7.81L10.42 7.81L10.42 8.23L10.42 8.23Q10.42 10.65 7.80 12.47L7.80 12.47L7.80 12.47Q6.52 13.36 5.29 13.55L5.29 13.55L5.29 15.79L5.29 15.79Q4.69 16.53 3.71 17.39L3.71 17.39L3.71 17.39Q2.46 18.48 1.83 18.48L1.83 18.48L1.83 18.48Q1.83 18.26 2.09 17.89L2.09 17.89L2.09 17.89Q2.38 17.46 2.42 17.33L2.42 17.33L2.42 17.33Q2.81 16.13 2.84 14.25L2.84 14.25L2.84 14.25Q2.84 14.25 2.81 11.41L2.81 11.41ZM5.50 6.97L5.36 7.39L5.36 11.31L5.36 11.31Q5.36 11.52 5.78 11.65L5.78 11.65L5.78 11.65Q6.10 11.75 6.40 11.75L6.40 11.75L6.40 11.75Q8.18 11.75 8.18 9.42L8.18 9.42L8.18 9.42Q8.18 6.96 5.89 6.96L5.89 6.96L5.89 6.96Q5.80 6.96 5.50 6.97L5.50 6.97ZM11.86 14.32L11.86 10.99L11.86 10.99Q11.68 10.99 11.32 11.14L11.32 11.14L11.32 11.14Q10.96 11.28 10.78 11.28L10.78 11.28L10.78 11.28Q10.78 10.40 12.26 9.45L12.26 9.45L12.26 9.45Q13.64 8.57 14.55 8.57L14.55 8.57L14.55 8.57Q14.55 8.86 14.10 9.84L14.10 9.84L14.10 10.36L14.10 10.36Q14.10 10.37 14.08 10.72L14.08 10.72L14.08 10.72Q14.08 10.81 14.08 10.89L14.08 10.89L14.08 10.89Q14.08 11.76 14.10 11.94L14.10 11.94L14.10 11.94Q14.14 12.50 14.24 12.50L14.24 12.50L14.52 12.50L16.06 11.52L16.06 11.52Q16.09 11.51 16.13 11.51L16.13 11.51L16.13 11.51Q16.35 11.51 16.35 12.17L16.35 12.17L16.35 12.17Q16.35 12.98 15.03 14.22L15.03 14.22L15.03 14.22Q13.71 15.46 12.88 15.46L12.88 15.46L12.88 15.46Q11.86 15.46 11.86 14.32L11.86 14.32ZM12.85 6.48L12.85 6.48L12.85 6.20L12.85 6.20Q12.85 6.10 12.84 6.01L12.84 6.01L12.84 5.92L12.84 5.92Q12.81 5.88 12.57 5.74L12.57 5.74L12.57 5.74Q12.40 5.64 12.40 5.50L12.40 5.50L12.40 5.50Q12.40 5.53 12.42 5.36L12.42 5.36L13.51 4.59L13.51 4.59Q14.29 4.09 14.81 4.09L14.81 4.09L14.81 4.09Q15.08 4.09 15.08 4.45L15.08 4.45L15.08 4.45Q15.08 5.74 13.40 7.60L13.40 7.60L13.40 7.60Q12.64 8.44 12.56 8.44L12.56 8.44L12.24 8.44L12.24 8.44Q12.24 8.15 12.54 7.48L12.54 7.48L12.54 7.48Q12.85 6.82 12.85 6.48ZM16.63 15.23L16.63 15.23L16.63 15.16L16.77 14.74L16.77 14.74Q16.80 14.64 16.91 14.18L16.91 14.18L16.91 10.12L16.91 10.12Q16.81 9.84 16.77 9.56L16.77 9.56L16.77 9.28L16.77 9.28Q17.54 8.82 18.45 8.30L18.45 8.30L18.45 8.30Q19.29 7.83 19.57 7.83L19.57 7.83L19.57 8.57L19.71 8.57L19.71 8.57Q19.84 8.58 19.85 8.58L19.85 8.58L21.11 8.44L21.11 8.44Q21.91 8.61 22.23 8.72L22.23 8.72L22.23 9.00L22.23 9.00Q20.80 9.13 19.57 10.68L19.57 10.68L19.43 11.10L19.43 11.10Q19.29 11.31 19.22 11.38L19.22 11.38L19.22 14.04L17.05 15.44L16.91 15.46L16.91 15.46Q16.63 15.46 16.63 15.23ZM22.71 12.99L22.71 12.99L22.71 12.99Q22.71 11.55 23.46 10.39L23.46 10.39L23.46 10.39Q24.21 9.24 25.52 8.65L25.52 8.65L25.52 8.65Q26.08 8.40 27.05 8.36L27.05 8.36L27.05 8.36Q28.22 8.30 28.60 8.23L28.60 8.23L29.44 7.95L29.44 7.95Q29.48 7.95 29.53 7.94L29.53 7.94L29.61 7.94L29.61 7.94Q29.61 8.20 29.32 8.53L29.32 8.53L29.32 8.53Q28.94 8.93 28.88 9.07L28.88 9.07L28.88 9.07Q28.63 9.60 28.60 9.88L28.60 9.88L28.60 9.88Q28.59 10.00 28.59 10.70L28.59 10.70L28.59 11.55L28.59 11.55Q28.59 12.31 28.95 12.31L28.95 12.31L28.95 12.31Q28.98 12.31 29.02 12.29L29.02 12.29L29.72 11.73L29.72 11.73Q29.76 11.72 29.96 11.69L29.96 11.69L29.96 11.69Q29.96 12.56 29.36 13.87L29.36 13.87L29.36 13.87Q28.66 15.40 27.90 15.40L27.90 15.40L27.90 15.40Q27.71 15.40 27.62 15.37L27.62 15.37L27.62 15.37Q26.59 14.66 26.08 13.13L26.08 13.13L26.08 13.13Q25.70 13.87 25.28 14.57L25.28 14.57L25.28 14.57Q24.72 15.53 23.98 15.53L23.98 15.53L23.98 15.53Q22.71 15.53 22.71 12.99ZM24.67 11.89L24.67 11.89L24.67 11.89Q24.67 12.74 25.16 12.74L25.16 12.74L25.16 12.74Q25.58 12.74 26.07 11.62L26.07 11.62L26.07 11.62Q26.52 10.60 26.52 10.02L26.52 10.02L26.52 10.02Q25.38 10.02 25.03 10.39L25.03 10.39L25.03 10.39Q24.67 10.75 24.67 11.89ZM30.66 9.46L30.66 9.46L30.66 9.14L30.66 9.14Q32.02 8.54 32.76 7.88L32.76 7.88L34.16 6.62L34.44 6.62L34.44 8.44L34.58 8.58L34.58 8.58Q34.99 8.60 35.08 8.60L35.08 8.60L35.08 8.60Q35.62 8.60 36.67 8.50L36.67 8.50L36.67 8.50Q37.72 8.41 38.25 8.41L38.25 8.41L38.25 8.41Q38.25 8.83 37.34 9.60L37.34 9.60L37.34 9.60Q36.54 10.28 36.12 10.40L36.12 10.40L36.12 10.40Q35.91 10.46 35.28 10.51L35.28 10.51L35.28 10.51Q34.65 10.57 34.44 10.54L34.44 10.54L34.30 10.68L34.30 10.68Q34.27 10.77 34.27 11.52L34.27 11.52L34.27 11.52Q34.27 11.65 34.25 11.91L34.25 11.91L34.25 11.91Q34.23 12.18 34.23 12.31L34.23 12.31L34.23 12.31Q34.23 13.40 34.72 13.40L34.72 13.40L34.72 13.40Q34.94 13.40 35 13.34L35 13.34L36.40 11.94L36.79 11.94L36.79 11.94Q36.79 13.13 35.97 14.25L35.97 14.25L35.97 14.25Q35.06 15.48 33.95 15.48L33.95 15.48L33.95 15.48Q33.39 15.48 33.13 15.38L33.13 15.38L33.13 15.38Q32.87 15.27 32.48 14.88L32.48 14.88L32.48 14.88Q32.37 14.77 32.11 14.38L32.11 14.38L32.11 14.38Q31.85 13.99 31.85 13.90L31.85 13.90L31.85 9.84L31.85 9.84Q31.85 9.79 31.71 9.68L31.71 9.68L31.71 9.68Q31.57 9.58 31.50 9.56L31.50 9.56L31.50 9.56Q31.05 9.46 30.66 9.46ZM38.78 12.82L38.78 12.82L38.78 12.82Q38.78 11.07 40.12 9.75L40.12 9.75L40.12 9.75Q41.45 8.43 43.20 8.43L43.20 8.43L43.20 8.43Q43.86 8.43 44.13 8.68L44.13 8.68L44.13 8.68Q44.41 8.93 44.41 9.58L44.41 9.58L44.41 9.58Q44.41 10.50 43.36 11.28L43.36 11.28L43.36 11.28Q42.48 11.82 41.59 12.36L41.59 12.36L41.45 12.50L41.45 12.50Q41.45 12.53 41.44 12.57L41.44 12.57L41.44 12.57Q41.44 12.80 41.76 13.05L41.76 13.05L41.76 13.05Q42.03 13.26 42.29 13.34L42.29 13.34L42.36 13.34L42.36 13.34Q42.78 13.34 43.65 12.69L43.65 12.69L43.65 12.69Q44.52 12.04 44.70 12.04L44.70 12.04L44.70 12.04Q44.70 13.23 43.47 14.34L43.47 14.34L43.47 14.34Q42.24 15.46 41.03 15.46L41.03 15.46L41.03 15.46Q39.98 15.46 39.35 14.64L39.35 14.64L39.35 14.64Q38.78 13.90 38.78 12.82ZM41.31 10.12L41.31 10.12L41.31 10.12Q40.81 10.81 40.81 11.56L40.81 11.56L40.81 11.56Q41.09 11.56 41.49 11.14L41.49 11.14L41.49 11.14Q41.89 10.71 41.89 10.42L41.89 10.42L41.89 10.42Q41.89 10.11 41.52 10.11L41.52 10.11L41.43 10.11L41.43 10.11Q41.33 10.12 41.31 10.12ZM46.72 11.20L46.72 11.20L46.72 11.20Q46.72 9.13 46.70 8.90L46.70 8.90L46.70 8.90Q46.69 8.68 46.41 8.03L46.41 8.03L46.41 8.03Q46.13 7.38 46.13 7.28L46.13 7.28L46.13 7.28Q46.13 6.97 47.63 6.29L47.63 6.29L47.63 6.29Q49.04 5.64 49.48 5.64L49.48 5.64L49.48 5.64Q49.48 7.69 51.04 10.43L51.04 10.43L51.04 10.43Q51.16 10.63 51.32 10.71L51.32 10.71L51.32 10.71Q51.44 10.44 51.73 10.00L51.73 10.00L51.73 10.00Q52.09 9.45 52.16 9.31L52.16 9.31L52.16 9.31Q52.49 8.71 53.14 7.49L53.14 7.49L53.14 7.49Q53.37 7.08 54.87 6.59L54.87 6.59L54.87 6.59Q56.24 6.15 56.87 6.15L56.87 6.15L56.87 6.15Q56.87 6.44 56.57 6.65L56.57 6.65L56.57 6.65Q56.17 6.94 56.08 7.07L56.08 7.07L56.08 7.07Q55.66 7.71 55.66 9.51L55.66 9.51L55.66 9.51Q55.66 10.25 55.81 11.72L55.81 11.72L55.81 11.72Q55.96 13.19 55.96 13.93L55.96 13.93L55.96 13.93Q55.96 14.50 55.92 14.76L55.92 14.76L55.92 14.76Q55.83 15.26 55.52 15.47L55.52 15.47L55.52 15.47Q54.38 16.28 54.10 16.45L54.10 16.45L54.10 16.45Q53.13 17.02 52.51 17.02L52.51 17.02L52.51 17.02Q52.51 16.79 52.68 16.59L52.68 16.59L52.68 16.59Q52.93 16.30 53.00 16.17L53.00 16.17L53.00 16.17Q53.44 15.36 53.44 13.85L53.44 13.85L53.44 13.85Q53.44 12.14 53.28 10.29L53.28 10.29L53.28 10.29Q53.21 10.40 52.29 12.81L52.29 12.81L52.29 12.81Q51.48 14.92 51.25 14.92L51.25 14.92L51.25 14.92Q50.62 14.92 49.22 12.67L49.22 12.67L49.22 12.67Q48.83 12.05 48.52 11.41L48.52 11.41L48.40 11.41L48.40 11.41Q48.40 12.04 48.53 13.31L48.53 13.31L48.53 13.31Q48.66 14.57 48.66 15.20L48.66 15.20L48.66 15.20Q48.66 15.32 47.24 16.27L47.24 16.27L47.24 16.27Q45.82 17.22 45.56 17.22L45.56 17.22L45.56 17.22Q45.56 16.86 46.00 16.09L46.00 16.09L46.00 16.09Q46.51 15.23 46.56 14.91L46.56 14.91L46.56 14.91Q46.72 14.07 46.72 11.20ZM57.65 10.95L57.65 10.95L57.65 10.95Q57.65 8.76 59.25 6.94L59.25 6.94L59.25 6.94Q60.91 5.07 63.07 5.07L63.07 5.07L63.07 5.07Q63.92 5.07 64.30 5.45L64.30 5.45L64.30 5.45Q64.68 5.84 64.68 6.69L64.68 6.69L64.68 6.69Q64.68 7.73 63.97 8.75L63.97 8.75L63.97 8.75Q63.48 9.46 62.43 10.40L62.43 10.40L62.43 10.40Q62.31 10.50 62.13 10.53L62.13 10.53L61.95 10.57L61.95 10.57Q61.95 10.28 62.27 9.60L62.27 9.60L62.27 9.60Q62.58 8.93 62.58 8.58L62.58 8.58L62.58 8.58Q62.58 7.92 62.31 7.46L62.31 7.46L62.31 7.46Q61.99 6.90 61.38 6.90L61.38 6.90L61.38 6.90Q60.59 6.90 60.19 8.23L60.19 8.23L60.19 8.23Q59.89 9.18 59.89 10.14L59.89 10.14L59.89 10.14Q59.89 11.16 60.27 12.00L60.27 12.00L60.27 12.00Q60.76 13.08 61.67 13.08L61.67 13.08L61.67 13.08Q62.38 13.08 63.28 12.26L63.28 12.26L63.28 12.26Q63.56 12.01 64.53 10.96L64.53 10.96L64.81 10.96L64.81 11.24L64.81 11.24Q64.81 11.34 63.41 13.90L63.41 13.90L63.41 13.90Q62.55 15.46 61.05 15.46L61.05 15.46L61.05 15.46Q59.33 15.46 58.42 14L58.42 14L58.42 14Q57.65 12.78 57.65 10.95Z">
        </path>
    </g>
    <defs data-v-fde0c5aa="">
        <linearGradient data-v-fde0c5aa="" gradientTransform="rotate(25)" id="49aad4eb-3549-417e-9726-dee0b1976836"
            x1="0%" y1="0%" x2="100%" y2="0%">
            <stop data-v-fde0c5aa="" offset="0%" stop-color="#D418EA" stop-opacity="1"></stop>
            <stop data-v-fde0c5aa="" offset="100%" stop-color="#ECD062" stop-opacity="1"></stop>
        </linearGradient>
    </defs>
    <g data-v-fde0c5aa="" id="72513c5c-4c6e-4924-8d71-41a01c6fe5be" stroke="none"
        fill="url(#49aad4eb-3549-417e-9726-dee0b1976836)"
        transform="matrix(2.1172041928485026,0,0,2.1172041928485026,40.01058602171353,16.12473316681437)">
        <path d="M16 23.787L8.102 16 16 8.213 23.898 16 16 23.787zM9.525 16L16 22.383 22.475 16 16 9.617 9.525 16z">
        </path>
        <path
            d="M15.915 31.778L-.005 16.084 16.085.222l15.92 15.694-16.09 15.862zM1.419 16.084l14.496 14.29 14.666-14.458-14.496-14.29L1.419 16.084z">
        </path>
        <path d="M15.5.924h1v30.152h-1z"></path>
    </g>
    <defs data-v-fde0c5aa="">
        <!---->
    </defs>
    <g data-v-fde0c5aa="" id="792ac0eb-ef9a-4a93-8fe4-2ca2b734094a" fill="#321926"
        transform="matrix(0.8995820070018702,0,0,0.8995820070018702,120.42986147424283,61.67113283533197)">
        <path
            d="M0.38 10.95L0.38 10.95L0.38 10.95Q0.38 8.76 1.97 6.94L1.97 6.94L1.97 6.94Q3.64 5.07 5.80 5.07L5.80 5.07L5.80 5.07Q6.65 5.07 7.03 5.45L7.03 5.45L7.03 5.45Q7.41 5.84 7.41 6.69L7.41 6.69L7.41 6.69Q7.41 7.73 6.69 8.75L6.69 8.75L6.69 8.75Q6.20 9.46 5.15 10.40L5.15 10.40L5.15 10.40Q5.04 10.50 4.86 10.53L4.86 10.53L4.68 10.57L4.68 10.57Q4.68 10.28 4.99 9.60L4.99 9.60L4.99 9.60Q5.31 8.93 5.31 8.58L5.31 8.58L5.31 8.58Q5.31 7.92 5.04 7.46L5.04 7.46L5.04 7.46Q4.72 6.90 4.10 6.90L4.10 6.90L4.10 6.90Q3.32 6.90 2.91 8.23L2.91 8.23L2.91 8.23Q2.62 9.18 2.62 10.14L2.62 10.14L2.62 10.14Q2.62 11.16 3.00 12.00L3.00 12.00L3.00 12.00Q3.49 13.08 4.40 13.08L4.40 13.08L4.40 13.08Q5.11 13.08 6.01 12.26L6.01 12.26L6.01 12.26Q6.29 12.01 7.25 10.96L7.25 10.96L7.53 10.96L7.53 11.24L7.53 11.24Q7.53 11.34 6.13 13.90L6.13 13.90L6.13 13.90Q5.28 15.46 3.78 15.46L3.78 15.46L3.78 15.46Q2.06 15.46 1.15 14L1.15 14L1.15 14Q0.38 12.78 0.38 10.95ZM11.68 14.01L11.68 14.01L11.68 14.01Q11.56 14.01 11.54 14.04L11.54 14.04L11.54 14.04Q10.91 14.67 10.67 14.85L10.67 14.85L10.67 14.85Q10.07 15.32 9.56 15.32L9.56 15.32L9.56 15.32Q9.09 15.32 8.74 14.64L8.74 14.64L8.74 14.64Q8.44 14.07 8.44 13.57L8.44 13.57L8.44 13.57Q8.44 13.08 8.72 12.14L8.72 12.14L8.72 12.14Q9.00 11.20 9.00 10.71L9.00 10.71L9.00 10.71Q8.90 10.71 8.71 10.78L8.71 10.78L8.71 10.78Q8.53 10.85 8.43 10.85L8.43 10.85L8.43 10.85Q8.43 10.12 9.56 9.53L9.56 9.53L9.56 9.53Q9.94 9.34 11.26 8.86L11.26 8.86L11.40 8.86L11.40 8.86Q11.55 8.93 11.55 9.07L11.55 9.07L11.55 9.07Q11.55 9.11 11.54 9.14L11.54 9.14L11.54 9.14Q10.96 10.50 10.96 11.47L10.96 11.47L10.96 11.47Q10.96 12.29 11.12 12.64L11.12 12.64L11.12 12.64Q11.82 12.25 11.82 10.12L11.82 10.12L11.82 10.12Q12.31 9.46 13.15 8.99L13.15 8.99L13.15 8.99Q14 8.51 14.78 8.51L14.78 8.51L14.78 8.51Q14.78 8.95 14.48 9.91L14.48 9.91L14.48 9.91Q14.18 10.86 14.18 11.34L14.18 11.34L14.18 11.34Q14.18 12.66 14.69 12.66L14.69 12.66L14.69 12.66Q14.91 12.66 15.42 12.21L15.42 12.21L15.42 12.21Q15.93 11.77 16.18 11.77L16.18 11.77L16.18 11.77Q16.18 12.82 15.44 14.07L15.44 14.07L15.44 14.07Q14.62 15.46 13.64 15.46L13.64 15.46L13.64 15.46Q13.17 15.46 12.75 15.08L12.75 15.08L12.75 15.08Q12.57 14.91 12.14 14.39L12.14 14.39L12.14 14.39Q11.83 14.01 11.68 14.01ZM17.08 15.23L17.08 15.23L17.08 15.16L17.22 14.74L17.22 14.74Q17.25 14.64 17.36 14.18L17.36 14.18L17.36 10.12L17.36 10.12Q17.26 9.84 17.22 9.56L17.22 9.56L17.22 9.28L17.22 9.28Q17.99 8.82 18.90 8.30L18.90 8.30L18.90 8.30Q19.74 7.83 20.02 7.83L20.02 7.83L20.02 8.57L20.16 8.57L20.16 8.57Q20.29 8.58 20.30 8.58L20.30 8.58L21.56 8.44L21.56 8.44Q22.36 8.61 22.68 8.72L22.68 8.72L22.68 9.00L22.68 9.00Q21.25 9.13 20.02 10.68L20.02 10.68L19.88 11.10L19.88 11.10Q19.74 11.31 19.67 11.38L19.67 11.38L19.67 14.04L17.50 15.44L17.36 15.46L17.36 15.46Q17.08 15.46 17.08 15.23ZM28.10 13.01L28.10 13.01L28.10 13.01Q28.10 12.14 27.10 11.52L27.10 11.52L27.10 11.52Q25.82 10.71 25.93 10.02L25.93 10.02L25.93 10.02Q25.98 9.70 26.39 9.35L26.39 9.35L26.39 9.35Q26.87 9.02 26.99 8.92L26.99 8.92L26.99 8.92Q27.29 8.67 27.33 8.44L27.33 8.44L27.33 8.44Q27.40 8.05 26.80 8.05L26.80 8.05L26.80 8.05Q25.80 8.05 24.65 8.82L24.65 8.82L24.65 8.82Q23.41 9.66 23.41 10.61L23.41 10.61L23.41 10.61Q23.41 11.28 24.22 11.83L24.22 11.83L24.22 11.83Q25.20 12.49 25.20 13.23L25.20 13.23L25.20 13.23Q25.20 14.08 24.16 14.66L24.16 14.66L24.16 14.66Q23.53 15.01 23.46 15.33L23.46 15.33L23.46 15.33Q23.38 15.75 24.28 15.75L24.28 15.75L24.28 15.75Q25.54 15.75 26.73 15.02L26.73 15.02L26.73 15.02Q28.10 14.20 28.10 13.01ZM29.08 12.82L29.08 12.82L29.08 12.82Q29.08 11.07 30.41 9.75L30.41 9.75L30.41 9.75Q31.75 8.43 33.50 8.43L33.50 8.43L33.50 8.43Q34.16 8.43 34.43 8.68L34.43 8.68L34.43 8.68Q34.71 8.93 34.71 9.58L34.71 9.58L34.71 9.58Q34.71 10.50 33.66 11.28L33.66 11.28L33.66 11.28Q32.77 11.82 31.89 12.36L31.89 12.36L31.75 12.50L31.75 12.50Q31.75 12.53 31.74 12.57L31.74 12.57L31.74 12.57Q31.74 12.80 32.06 13.05L32.06 13.05L32.06 13.05Q32.33 13.26 32.59 13.34L32.59 13.34L32.66 13.34L32.66 13.34Q33.08 13.34 33.95 12.69L33.95 12.69L33.95 12.69Q34.82 12.04 35 12.04L35 12.04L35 12.04Q35 13.23 33.77 14.34L33.77 14.34L33.77 14.34Q32.54 15.46 31.33 15.46L31.33 15.46L31.33 15.46Q30.28 15.46 29.65 14.64L29.65 14.64L29.65 14.64Q29.08 13.90 29.08 12.82ZM31.61 10.12L31.61 10.12L31.61 10.12Q31.11 10.81 31.11 11.56L31.11 11.56L31.11 11.56Q31.39 11.56 31.79 11.14L31.79 11.14L31.79 11.14Q32.19 10.71 32.19 10.42L32.19 10.42L32.19 10.42Q32.19 10.11 31.82 10.11L31.82 10.11L31.72 10.11L31.72 10.11Q31.63 10.12 31.61 10.12ZM41.06 13.58L41.06 11.83L41.06 11.83Q41.06 11.31 41.05 11.20L41.05 11.20L41.05 11.20Q41.03 11.03 40.89 10.68L40.89 10.68L40.89 10.68Q40.75 10.32 40.75 10.19L40.75 10.19L40.75 10.19Q40.75 9.81 42.08 9.00L42.08 9.00L42.08 9.00Q43.41 8.18 43.88 8.18L43.88 8.18L43.88 8.18Q43.88 8.50 43.72 9.11L43.72 9.11L43.72 9.11Q43.57 9.73 43.57 10.05L43.57 10.05L43.57 10.19L43.57 10.19Q43.96 10.09 44.65 9.39L44.65 9.39L44.65 9.39Q45.25 8.78 45.79 8.78L45.79 8.78L45.79 8.78Q46.28 8.78 46.55 9.16L46.55 9.16L46.55 9.16Q46.73 9.41 46.93 10.05L46.93 10.05L47.07 10.05L47.07 10.05Q48.99 8.34 50.74 8.34L50.74 8.34L50.74 8.34Q50.74 8.65 50.51 9.29L50.51 9.29L50.51 9.29Q50.27 9.93 50.27 10.25L50.27 10.25L50.27 10.25Q50.27 10.74 50.39 11.52L50.39 11.52L50.39 11.52Q50.54 12.59 50.78 12.59L50.78 12.59L50.78 12.59Q50.81 12.59 50.85 12.57L50.85 12.57L50.85 12.57Q51.02 12.47 51.44 12.24L51.44 12.24L51.44 12.24Q51.94 11.96 52.26 11.96L52.26 11.96L52.26 11.96Q52.26 12.96 51.53 14.11L51.53 14.11L51.53 14.11Q50.72 15.39 49.80 15.39L49.80 15.39L49.80 15.39Q48.68 15.39 48.20 13.92L48.20 13.92L48.20 13.92Q47.89 12.96 47.89 11.52L47.89 11.52L47.89 11.52Q47.89 11.20 47.91 10.89L47.91 10.89L47.91 10.89Q47.74 11.10 47.63 11.45L47.63 11.45L47.63 11.45Q47.19 12.81 46.93 14.11L46.93 14.11L46.93 14.11Q46.56 14.81 45.80 15.24L45.80 15.24L45.80 15.24Q45.04 15.67 44.23 15.67L44.23 15.67L44.23 15.67Q44.23 15.18 44.53 14.13L44.53 14.13L44.53 14.13Q44.84 13.09 44.84 12.56L44.84 12.56L44.84 12.56Q44.84 11.84 44.83 11.70L44.83 11.70L44.83 11.70Q44.79 11.28 44.55 10.89L44.55 10.89L44.55 10.89Q44.52 10.86 44.41 10.86L44.41 10.86L44.41 10.86Q43.99 10.86 43.61 12.57L43.61 12.57L43.61 12.57Q43.33 13.83 43.29 14.67L43.29 14.67L43.29 14.67Q43.20 14.83 43.01 14.95L43.01 14.95L43.01 14.95Q42.67 15.16 41.95 15.61L41.95 15.61L41.95 15.61Q41.23 16.06 40.63 16.21L40.63 16.21L40.63 16.21Q40.59 16.21 40.54 16.23L40.54 16.23L40.45 16.23L40.45 16.23Q40.45 15.95 40.63 15.58L40.63 15.58L40.63 15.58Q40.87 15.09 40.91 14.95L40.91 14.95L40.91 14.95Q41.05 14.41 41.05 14.25L41.05 14.25L41.05 14.25Q41.05 14.25 41.06 14.03L41.06 14.03L41.06 14.03Q41.06 13.80 41.06 13.58L41.06 13.58ZM52.99 12.82L52.99 12.82L52.99 12.82Q52.99 11.07 54.33 9.75L54.33 9.75L54.33 9.75Q55.66 8.43 57.41 8.43L57.41 8.43L57.41 8.43Q58.07 8.43 58.34 8.68L58.34 8.68L58.34 8.68Q58.62 8.93 58.62 9.58L58.62 9.58L58.62 9.58Q58.62 10.50 57.57 11.28L57.57 11.28L57.57 11.28Q56.69 11.82 55.80 12.36L55.80 12.36L55.66 12.50L55.66 12.50Q55.66 12.53 55.65 12.57L55.65 12.57L55.65 12.57Q55.65 12.80 55.97 13.05L55.97 13.05L55.97 13.05Q56.24 13.26 56.50 13.34L56.50 13.34L56.57 13.34L56.57 13.34Q56.99 13.34 57.86 12.69L57.86 12.69L57.86 12.69Q58.73 12.04 58.91 12.04L58.91 12.04L58.91 12.04Q58.91 13.23 57.68 14.34L57.68 14.34L57.68 14.34Q56.45 15.46 55.24 15.46L55.24 15.46L55.24 15.46Q54.19 15.46 53.56 14.64L53.56 14.64L53.56 14.64Q52.99 13.90 52.99 12.82ZM55.52 10.12L55.52 10.12L55.52 10.12Q55.02 10.81 55.02 11.56L55.02 11.56L55.02 11.56Q55.30 11.56 55.70 11.14L55.70 11.14L55.70 11.14Q56.10 10.71 56.10 10.42L56.10 10.42L56.10 10.42Q56.10 10.11 55.73 10.11L55.73 10.11L55.64 10.11L55.64 10.11Q55.54 10.12 55.52 10.12ZM70.22 11.24L70.22 11.24L70.22 11.24Q69.69 11.24 68.11 11.12L68.11 11.12L68.11 11.19L68.11 11.19Q68.03 11.19 67.62 11.20L67.62 11.20L67.48 11.34L67.48 13.16L67.42 13.16L67.42 13.16Q67.42 14.07 67.44 14.27L67.44 14.27L67.44 14.27Q67.31 14.91 66.28 15.41L66.28 15.41L66.28 15.41Q65.37 15.86 64.67 15.86L64.67 15.86L64.67 15.86Q64.67 15.53 64.83 14.99L64.83 14.99L64.83 15.01L64.83 15.01Q65.18 13.96 65.23 11.45L65.23 11.45L65.23 11.45Q64.60 11.03 63.70 10.64L63.70 10.64L63.70 10.32L63.70 10.32Q64.11 10.32 64.54 10.22L64.54 10.22L64.54 10.22Q64.61 10.21 64.75 10.10L64.75 10.10L64.75 10.10Q64.89 10.00 64.89 9.94L64.89 9.94L64.89 5.88L64.89 5.88Q64.89 5.82 65.14 5.43L65.14 5.43L65.14 5.43Q65.31 5.15 65.52 4.90L65.52 4.90L65.52 4.90Q65.90 4.51 66.16 4.40L66.16 4.40L66.16 4.40Q66.43 4.30 66.99 4.30L66.99 4.30L66.99 4.30Q68.10 4.30 69.01 5.53L69.01 5.53L69.01 5.53Q69.83 6.65 69.83 7.84L69.83 7.84L69.44 7.84L68.04 6.44L68.04 6.44Q67.98 6.38 67.76 6.38L67.76 6.38L67.76 6.38Q67.27 6.38 67.27 7.48L67.27 7.48L67.27 7.48Q67.27 7.38 67.30 7.97L67.30 7.97L67.31 8.26L67.31 8.26Q67.31 8.65 67.34 9.10L67.34 9.10L67.48 9.24L67.48 9.24Q67.55 9.23 68.01 9.25L68.01 9.25L68.01 9.24L68.05 9.24L68.05 9.24Q68.08 9.25 68.09 9.25L68.09 9.25L68.09 9.25Q68.10 9.25 68.11 9.27L68.11 9.27L68.18 9.27L68.18 9.30L68.18 9.30Q68.67 9.51 69.40 10.14L69.40 10.14L69.40 10.14Q70.22 10.85 70.22 11.24ZM70.85 12.45L70.85 12.45L70.85 12.45Q70.85 10.70 71.93 9.34L71.93 9.34L71.93 9.34Q73.08 7.87 74.79 7.87L74.79 7.87L74.79 7.87Q76.17 7.87 76.86 8.85L76.86 8.85L76.86 8.85Q77.46 9.70 77.46 11.13L77.46 11.13L77.46 11.13Q77.46 12.68 76.52 14L76.52 14L76.52 14Q75.49 15.46 73.95 15.46L73.95 15.46L73.95 15.46Q72.80 15.46 71.83 14.52L71.83 14.52L71.83 14.52Q70.85 13.58 70.85 12.45ZM72.80 11.28L72.80 11.28L72.80 11.28Q72.80 12.46 74.37 13.76L74.37 13.76L74.55 13.76L74.55 13.76Q74.69 13.78 74.72 13.78L74.72 13.78L74.72 13.78Q75.21 13.78 75.45 13.26L75.45 13.26L75.45 13.26Q75.63 12.87 75.63 12.31L75.63 12.31L75.63 12.31Q75.63 11.34 75.32 10.58L75.32 10.58L75.32 10.58Q74.89 9.53 74.07 9.53L74.07 9.53L74.07 9.53Q73.72 9.53 73.54 10.04L73.54 10.04L73.54 10.04Q73.49 10.30 73.35 10.84L73.35 10.84L73.35 10.84Q73.22 11.28 72.80 11.28ZM78.34 15.23L78.34 15.23L78.34 15.16L78.48 14.74L78.48 14.74Q78.51 14.64 78.62 14.18L78.62 14.18L78.62 10.12L78.62 10.12Q78.53 9.84 78.48 9.56L78.48 9.56L78.48 9.28L78.48 9.28Q79.25 8.82 80.16 8.30L80.16 8.30L80.16 8.30Q81.00 7.83 81.28 7.83L81.28 7.83L81.28 8.57L81.42 8.57L81.42 8.57Q81.55 8.58 81.56 8.58L81.56 8.58L82.82 8.44L82.82 8.44Q83.62 8.61 83.94 8.72L83.94 8.72L83.94 9.00L83.94 9.00Q82.52 9.13 81.28 10.68L81.28 10.68L81.14 11.10L81.14 11.10Q81.00 11.31 80.93 11.38L80.93 11.38L80.93 14.04L78.76 15.44L78.62 15.46L78.62 15.46Q78.34 15.46 78.34 15.23ZM84.11 18.27L84.11 18.27L84.11 18.27Q84.11 18.10 84.14 18.06L84.14 18.06L84.14 18.06Q84.74 17.04 85.96 15.96L85.96 15.96L86.10 15.95L86.10 15.95Q86.21 15.95 86.41 16.31L86.41 16.31L86.41 16.31Q86.70 16.86 86.84 17.01L86.84 17.01L86.84 17.01Q87.18 17.37 87.71 17.37L87.71 17.37L87.71 17.37Q88.42 17.37 88.77 16.56L88.77 16.56L88.77 16.56Q89.04 15.96 89.04 15.13L89.04 15.13L89.04 15.13Q89.04 14.28 88.90 13.30L88.90 13.30L88.90 13.30Q88.89 13.30 88.87 13.29L88.87 13.29L88.83 13.29L88.83 13.29Q88.59 13.29 88.19 13.83L88.19 13.83L88.19 13.83Q87.47 14.77 87.40 14.85L87.40 14.85L87.40 14.85Q86.90 15.40 86.45 15.40L86.45 15.40L86.45 15.40Q84.69 15.40 84.69 13.02L84.69 13.02L84.69 13.02Q84.69 11.45 85.55 10.18L85.55 10.18L85.55 10.18Q86.45 8.85 87.92 8.40L87.92 8.40L87.92 8.40Q88.55 8.41 89.25 8.41L89.25 8.41L89.25 8.41Q89.96 8.41 90.72 8.40L90.72 8.40L91.56 8.26L91.56 8.26Q91.53 8.26 91.73 8.25L91.73 8.25L91.73 8.25Q91.73 8.75 91.42 8.96L91.42 8.96L91.42 8.96Q91.13 9.81 91.13 10.93L91.13 10.93L91.13 10.93Q91.13 11.48 91.21 12.58L91.21 12.58L91.21 12.58Q91.29 13.68 91.29 14.22L91.29 14.22L91.29 14.22Q91.29 15.72 91.14 16.38L91.14 16.38L91.14 16.38Q91.08 16.60 90.94 16.72L90.94 16.72L90.58 16.94L90.58 16.94Q89.40 17.91 88.45 18.35L88.45 18.35L88.45 18.35Q87.25 18.91 85.96 18.91L85.96 18.91L85.96 18.91Q85.13 18.91 84.88 18.87L84.88 18.87L84.88 18.87Q84.11 18.75 84.11 18.27ZM86.51 11.62L86.51 11.62L86.51 11.62Q86.51 12.10 86.65 12.49L86.65 12.49L86.65 12.49Q86.84 13.03 87.22 13.03L87.22 13.03L87.22 13.03Q87.61 13.03 88.21 11.93L88.21 11.93L88.21 11.93Q88.77 10.91 88.77 10.50L88.77 10.50L88.77 10.50Q88.77 10.53 88.76 10.36L88.76 10.36L88.69 10.32L88.69 10.32Q88.27 10.07 87.86 10.07L87.86 10.07L87.86 10.07Q86.51 10.07 86.51 11.62ZM92.50 12.82L92.50 12.82L92.50 12.82Q92.50 11.07 93.84 9.75L93.84 9.75L93.84 9.75Q95.17 8.43 96.92 8.43L96.92 8.43L96.92 8.43Q97.58 8.43 97.85 8.68L97.85 8.68L97.85 8.68Q98.13 8.93 98.13 9.58L98.13 9.58L98.13 9.58Q98.13 10.50 97.08 11.28L97.08 11.28L97.08 11.28Q96.19 11.82 95.31 12.36L95.31 12.36L95.17 12.50L95.17 12.50Q95.17 12.53 95.16 12.57L95.16 12.57L95.16 12.57Q95.16 12.80 95.48 13.05L95.48 13.05L95.48 13.05Q95.75 13.26 96.01 13.34L96.01 13.34L96.08 13.34L96.08 13.34Q96.50 13.34 97.37 12.69L97.37 12.69L97.37 12.69Q98.24 12.04 98.42 12.04L98.42 12.04L98.42 12.04Q98.42 13.23 97.19 14.34L97.19 14.34L97.19 14.34Q95.96 15.46 94.75 15.46L94.75 15.46L94.75 15.46Q93.70 15.46 93.07 14.64L93.07 14.64L93.07 14.64Q92.50 13.90 92.50 12.82ZM95.03 10.12L95.03 10.12L95.03 10.12Q94.53 10.81 94.53 11.56L94.53 11.56L94.53 11.56Q94.81 11.56 95.21 11.14L95.21 11.14L95.21 11.14Q95.61 10.71 95.61 10.42L95.61 10.42L95.61 10.42Q95.61 10.11 95.24 10.11L95.24 10.11L95.14 10.11L95.14 10.11Q95.05 10.12 95.03 10.12ZM104.48 13.58L104.48 11.83L104.48 11.83Q104.48 11.31 104.47 11.20L104.47 11.20L104.47 11.20Q104.45 11.03 104.31 10.68L104.31 10.68L104.31 10.68Q104.17 10.32 104.17 10.19L104.17 10.19L104.17 10.19Q104.17 9.81 105.50 9.00L105.50 9.00L105.50 9.00Q106.83 8.18 107.30 8.18L107.30 8.18L107.30 8.18Q107.30 8.50 107.14 9.11L107.14 9.11L107.14 9.11Q106.99 9.73 106.99 10.05L106.99 10.05L106.99 10.19L106.99 10.19Q107.38 10.09 108.07 9.39L108.07 9.39L108.07 9.39Q108.67 8.78 109.21 8.78L109.21 8.78L109.21 8.78Q109.70 8.78 109.97 9.16L109.97 9.16L109.97 9.16Q110.15 9.41 110.35 10.05L110.35 10.05L110.49 10.05L110.49 10.05Q112.41 8.34 114.16 8.34L114.16 8.34L114.16 8.34Q114.16 8.65 113.93 9.29L113.93 9.29L113.93 9.29Q113.69 9.93 113.69 10.25L113.69 10.25L113.69 10.25Q113.69 10.74 113.81 11.52L113.81 11.52L113.81 11.52Q113.96 12.59 114.20 12.59L114.20 12.59L114.20 12.59Q114.23 12.59 114.27 12.57L114.27 12.57L114.27 12.57Q114.44 12.47 114.86 12.24L114.86 12.24L114.86 12.24Q115.36 11.96 115.68 11.96L115.68 11.96L115.68 11.96Q115.68 12.96 114.95 14.11L114.95 14.11L114.95 14.11Q114.14 15.39 113.22 15.39L113.22 15.39L113.22 15.39Q112.10 15.39 111.62 13.92L111.62 13.92L111.62 13.92Q111.31 12.96 111.31 11.52L111.31 11.52L111.31 11.52Q111.31 11.20 111.33 10.89L111.33 10.89L111.33 10.89Q111.16 11.10 111.05 11.45L111.05 11.45L111.05 11.45Q110.61 12.81 110.35 14.11L110.35 14.11L110.35 14.11Q109.98 14.81 109.22 15.24L109.22 15.24L109.22 15.24Q108.46 15.67 107.65 15.67L107.65 15.67L107.65 15.67Q107.65 15.18 107.95 14.13L107.95 14.13L107.95 14.13Q108.26 13.09 108.26 12.56L108.26 12.56L108.26 12.56Q108.26 11.84 108.25 11.70L108.25 11.70L108.25 11.70Q108.21 11.28 107.97 10.89L107.97 10.89L107.97 10.89Q107.94 10.86 107.83 10.86L107.83 10.86L107.83 10.86Q107.41 10.86 107.03 12.57L107.03 12.57L107.03 12.57Q106.75 13.83 106.71 14.67L106.71 14.67L106.71 14.67Q106.62 14.83 106.43 14.95L106.43 14.95L106.43 14.95Q106.09 15.16 105.37 15.61L105.37 15.61L105.37 15.61Q104.65 16.06 104.05 16.21L104.05 16.21L104.05 16.21Q104.01 16.21 103.96 16.23L103.96 16.23L103.87 16.23L103.87 16.23Q103.87 15.95 104.05 15.58L104.05 15.58L104.05 15.58Q104.29 15.09 104.33 14.95L104.33 14.95L104.33 14.95Q104.47 14.41 104.47 14.25L104.47 14.25L104.47 14.25Q104.47 14.25 104.48 14.03L104.48 14.03L104.48 14.03Q104.48 13.80 104.48 13.58L104.48 13.58ZM115.64 17.95L115.64 17.95L115.64 17.95Q115.64 17.47 116.07 16.97L116.07 16.97L116.07 16.97Q116.26 16.76 116.72 16.28L116.72 16.28L116.72 16.28Q117.28 15.71 117.33 15.71L117.33 15.71L117.61 15.71L117.61 15.71Q118.64 18.65 120.13 18.65L120.13 18.65L120.13 18.65Q120.68 18.65 120.99 18.17L120.99 18.17L120.99 18.17Q121.25 17.77 121.25 17.18L121.25 17.18L121.25 16.97L121.25 16.97Q121.07 15.29 120.83 13.61L120.83 13.61L120.83 13.61Q120.53 13.82 120.16 14.38L120.16 14.38L120.16 14.38Q119.74 15.02 119.56 15.20L119.56 15.20L119.56 15.20Q119.17 15.58 118.62 15.58L118.62 15.58L118.62 15.58Q118.10 15.58 117.81 14.91L117.81 14.91L117.81 14.91Q117.60 14.42 117.60 13.79L117.60 13.79L117.60 13.79Q117.60 13.31 117.66 12.38L117.66 12.38L117.66 12.38Q117.71 11.45 117.71 10.98L117.71 10.98L117.71 10.98Q117.42 10.98 116.35 11.93L116.35 11.93L116.14 11.93L116.14 11.93Q116.14 10.95 117.73 9.83L117.73 9.83L117.73 9.83Q119.22 8.76 120.32 8.76L120.32 8.76L120.32 8.76Q120.32 9.11 120.08 9.87L120.08 9.87L120.08 9.87Q119.84 10.63 119.84 11.02L119.84 11.02L119.84 11.82L119.84 11.82Q119.83 11.89 119.83 11.83L119.83 11.83L119.83 11.83Q119.87 12.52 120.13 12.63L120.13 12.63L120.13 12.63Q120.68 12.24 120.82 11.33L120.82 11.33L120.82 11.33Q120.97 10.30 121.25 9.97L121.25 9.97L121.25 9.97Q123.42 8.41 124.38 8.41L124.38 8.41L124.38 8.41Q124.38 8.62 124.05 8.99L124.05 8.99L124.05 8.99Q123.68 9.41 123.63 9.55L123.63 9.55L123.63 9.55Q123.34 10.46 123.34 11.49L123.34 11.49L123.34 11.49Q123.34 12.04 123.42 13.11L123.42 13.11L123.42 13.11Q123.51 14.18 123.51 14.73L123.51 14.73L123.51 14.73Q123.51 16.38 123.35 17.25L123.35 17.25L123.35 17.25Q123.30 17.42 123.21 17.53L123.21 17.53L123.21 17.53Q122.26 18.77 121.42 19.33L121.42 19.33L121.42 19.33Q120.33 20.06 119.00 20.06L119.00 20.06L119.00 20.06Q118.06 20.06 116.94 19.49L116.94 19.49L116.94 19.49Q115.64 18.82 115.64 17.95ZM130.21 10.70L130.21 10.70L130.21 10.70Q130.21 10.01 130.03 8.67L130.03 8.67L130.03 8.67Q129.85 7.32 129.85 6.64L129.85 6.64L129.85 6.64Q129.85 6.01 131.11 5.12L131.11 5.12L131.11 5.12Q132.30 4.28 132.96 4.28L132.96 4.28L132.96 4.28Q132.96 4.72 132.67 5.51L132.67 5.51L132.67 5.51Q132.38 6.30 132.37 6.71L132.37 6.71L132.37 6.71Q132.34 7.24 132.41 8.04L132.41 8.04L132.41 8.04Q132.50 9.03 132.50 9.38L132.50 9.38L132.50 9.38Q132.76 9.38 133.57 8.97L133.57 8.97L133.57 8.97Q134.37 8.55 134.75 8.55L134.75 8.55L134.75 8.55Q136.51 8.55 136.51 10.70L136.51 10.70L136.51 10.70Q136.51 12.56 135.32 13.96L135.32 13.96L135.32 13.96Q134.06 15.43 132.23 15.43L132.23 15.43L132.23 15.43Q132.06 15.43 131.73 15.35L131.73 15.35L131.73 15.35Q131.40 15.27 131.24 15.27L131.24 15.27L131.24 15.27Q130.96 15.27 130.42 15.51L130.42 15.51L130.42 15.51Q129.89 15.74 129.61 15.74L129.61 15.74L129.61 15.74Q129.61 15.43 129.78 14.83L129.78 14.83L129.78 14.83Q129.92 14.35 130.06 13.89L130.06 13.89L130.06 13.89Q130.21 12.94 130.21 10.70ZM133.49 10.37L133.49 10.37L133.49 10.37Q133.17 10.37 132.80 10.65L132.80 10.65L132.80 10.65Q132.44 10.92 132.44 11.23L132.44 11.23L132.44 13.61L132.44 13.61Q132.61 13.69 132.86 13.75L132.86 13.75L133 13.75L133 13.75Q133.74 13.75 134.18 13.08L134.18 13.08L134.18 13.08Q134.55 12.50 134.55 11.72L134.55 11.72L134.55 11.72Q134.55 11.17 134.30 10.81L134.30 10.81L134.30 10.81Q134.01 10.37 133.49 10.37ZM137.14 12.45L137.14 12.45L137.14 12.45Q137.14 10.70 138.22 9.34L138.22 9.34L138.22 9.34Q139.37 7.87 141.08 7.87L141.08 7.87L141.08 7.87Q142.46 7.87 143.15 8.85L143.15 8.85L143.15 8.85Q143.75 9.70 143.75 11.13L143.75 11.13L143.75 11.13Q143.75 12.68 142.81 14L142.81 14L142.81 14Q141.78 15.46 140.24 15.46L140.24 15.46L140.24 15.46Q139.09 15.46 138.12 14.52L138.12 14.52L138.12 14.52Q137.14 13.58 137.14 12.45ZM139.09 11.28L139.09 11.28L139.09 11.28Q139.09 12.46 140.66 13.76L140.66 13.76L140.84 13.76L140.84 13.76Q140.98 13.78 141.01 13.78L141.01 13.78L141.01 13.78Q141.50 13.78 141.74 13.26L141.74 13.26L141.74 13.26Q141.92 12.87 141.92 12.31L141.92 12.31L141.92 12.31Q141.92 11.34 141.61 10.58L141.61 10.58L141.61 10.58Q141.18 9.53 140.36 9.53L140.36 9.53L140.36 9.53Q140.01 9.53 139.83 10.04L139.83 10.04L139.83 10.04Q139.78 10.30 139.64 10.84L139.64 10.84L139.64 10.84Q139.51 11.28 139.09 11.28ZM145.19 10.70L145.19 10.70L145.19 10.70Q145.19 10.01 145.01 8.67L145.01 8.67L145.01 8.67Q144.83 7.32 144.83 6.64L144.83 6.64L144.83 6.64Q144.83 6.01 146.09 5.12L146.09 5.12L146.09 5.12Q147.28 4.28 147.94 4.28L147.94 4.28L147.94 4.28Q147.94 4.72 147.65 5.51L147.65 5.51L147.65 5.51Q147.36 6.30 147.35 6.71L147.35 6.71L147.35 6.71Q147.32 7.24 147.39 8.04L147.39 8.04L147.39 8.04Q147.48 9.03 147.48 9.38L147.48 9.38L147.48 9.38Q147.74 9.38 148.55 8.97L148.55 8.97L148.55 8.97Q149.35 8.55 149.73 8.55L149.73 8.55L149.73 8.55Q151.49 8.55 151.49 10.70L151.49 10.70L151.49 10.70Q151.49 12.56 150.30 13.96L150.30 13.96L150.30 13.96Q149.04 15.43 147.21 15.43L147.21 15.43L147.21 15.43Q147.04 15.43 146.71 15.35L146.71 15.35L146.71 15.35Q146.38 15.27 146.22 15.27L146.22 15.27L146.22 15.27Q145.94 15.27 145.40 15.51L145.40 15.51L145.40 15.51Q144.87 15.74 144.59 15.74L144.59 15.74L144.59 15.74Q144.59 15.43 144.76 14.83L144.76 14.83L144.76 14.83Q144.90 14.35 145.04 13.89L145.04 13.89L145.04 13.89Q145.19 12.94 145.19 10.70ZM148.47 10.37L148.47 10.37L148.47 10.37Q148.15 10.37 147.78 10.65L147.78 10.65L147.78 10.65Q147.42 10.92 147.42 11.23L147.42 11.23L147.42 13.61L147.42 13.61Q147.59 13.69 147.84 13.75L147.84 13.75L147.98 13.75L147.98 13.75Q148.72 13.75 149.16 13.08L149.16 13.08L149.16 13.08Q149.53 12.50 149.53 11.72L149.53 11.72L149.53 11.72Q149.53 11.17 149.28 10.81L149.28 10.81L149.28 10.81Q148.99 10.37 148.47 10.37ZM155.15 14.36L155.15 14.36L155.15 14.36Q155.15 14.76 154.86 15.09L154.86 15.09L154.86 15.09Q154.57 15.41 154.18 15.44L154.18 15.44L154.18 15.44Q154.03 15.46 152.92 15.44L152.92 15.44L152.92 15.44Q152.64 15.44 152.43 15.22L152.43 15.22L152.43 15.22Q152.21 14.99 152.21 14.71L152.21 14.71L152.21 14.71Q152.21 14.34 152.57 13.98L152.57 13.98L152.57 13.98Q152.92 13.62 153.30 13.62L153.30 13.62L154.50 13.62L154.50 13.62Q154.78 13.62 154.97 13.85L154.97 13.85L154.97 13.85Q155.15 14.07 155.15 14.36Z">
        </path>
    </g>
</svg>